<svg id="svg" version="1.1" width="400" height="400" xmlns="http://www.w3.org/2000/svg" xmlns:xlink="http://www.w3.org/1999/xlink">
    <style>
      .mathhub-dark-blue { fill:#385d8a; }
      .mathhub-light-blue {fill:#4f81bd; }
      .mathhub-white { fill:#ffffff; }
    </style>
    
    <!-- the boundary -->
    <path
      d="M195.662 1.977 C 194.528 3.065,193.600 4.145,193.600 4.377 C 193.600 4.610,193.407 4.800,193.171 4.800 C 192.618 4.800,191.600 5.818,191.600 6.371 C 191.600 6.607,191.423 6.800,191.208 6.800 C 190.695 6.800,180.400 17.095,180.400 17.608 C 180.400 17.823,180.207 18.000,179.971 18.000 C 179.418 18.000,178.400 19.018,178.400 19.571 C 178.400 19.807,178.223 20.000,178.008 20.000 C 177.495 20.000,167.200 30.295,167.200 30.808 C 167.200 31.023,166.960 31.200,166.668 31.200 C 166.375 31.200,165.894 31.650,165.600 32.200 C 165.306 32.750,164.923 33.200,164.750 33.200 C 164.273 33.200,158.000 39.504,158.000 39.983 C 158.000 40.212,157.865 40.355,157.700 40.300 C 157.309 40.170,154.000 43.479,154.000 44.000 C 154.000 44.220,153.760 44.400,153.468 44.400 C 153.175 44.400,152.694 44.850,152.400 45.400 C 152.106 45.950,151.723 46.400,151.550 46.400 C 151.073 46.400,144.800 52.704,144.800 53.183 C 144.800 53.412,144.665 53.555,144.500 53.500 C 144.109 53.370,140.800 56.679,140.800 57.200 C 140.800 57.420,140.560 57.600,140.268 57.600 C 139.975 57.600,139.494 58.050,139.200 58.600 C 138.906 59.150,138.502 59.600,138.304 59.600 C 137.805 59.600,136.800 60.650,136.800 61.171 C 136.800 61.407,136.618 61.600,136.395 61.600 C 136.173 61.600,134.103 63.488,131.795 65.795 C 129.488 68.103,127.600 70.173,127.600 70.395 C 127.600 70.618,127.360 70.800,127.068 70.800 C 126.775 70.800,126.305 71.230,126.024 71.756 C 125.742 72.282,125.082 72.942,124.556 73.224 C 124.030 73.505,123.600 73.975,123.600 74.268 C 123.600 74.560,123.418 74.800,123.195 74.800 C 122.667 74.800,114.400 83.067,114.400 83.595 C 114.400 83.818,114.160 84.000,113.868 84.000 C 113.575 84.000,113.105 84.430,112.824 84.956 C 112.542 85.482,111.882 86.142,111.356 86.424 C 110.830 86.705,110.400 87.175,110.400 87.468 C 110.400 87.760,110.169 88.000,109.886 88.000 C 109.145 88.000,108.000 90.124,108.000 91.500 C 108.000 94.087,107.199 94.000,131.131 94.000 L 152.800 94.000 152.800 123.400 L 152.800 152.800 123.400 152.800 L 94.000 152.800 94.000 131.000 C 94.000 111.889,93.926 109.200,93.400 109.200 C 93.070 109.200,92.800 108.930,92.800 108.600 C 92.800 107.798,91.099 107.821,89.360 108.646 C 88.612 109.001,88.000 109.541,88.000 109.846 C 88.000 110.151,87.760 110.400,87.468 110.400 C 87.175 110.400,86.705 110.830,86.424 111.356 C 86.142 111.882,85.482 112.542,84.956 112.824 C 84.430 113.105,84.000 113.575,84.000 113.868 C 84.000 114.160,83.818 114.400,83.595 114.400 C 83.067 114.400,74.800 122.667,74.800 123.195 C 74.800 123.418,74.560 123.600,74.268 123.600 C 73.975 123.600,73.505 124.030,73.224 124.556 C 72.942 125.082,72.282 125.742,71.756 126.024 C 71.230 126.305,70.800 126.775,70.800 127.068 C 70.800 127.360,70.618 127.600,70.395 127.600 C 69.867 127.600,61.600 135.867,61.600 136.395 C 61.600 136.618,61.407 136.800,61.171 136.800 C 60.650 136.800,59.600 137.805,59.600 138.304 C 59.600 138.502,59.150 138.906,58.600 139.200 C 58.050 139.494,57.600 139.975,57.600 140.268 C 57.600 140.560,57.420 140.800,57.200 140.800 C 56.679 140.800,53.370 144.109,53.500 144.500 C 53.555 144.665,53.412 144.800,53.183 144.800 C 52.704 144.800,46.400 151.073,46.400 151.550 C 46.400 151.723,45.950 152.106,45.400 152.400 C 44.850 152.694,44.400 153.175,44.400 153.468 C 44.400 153.760,44.220 154.000,44.000 154.000 C 43.479 154.000,40.170 157.309,40.300 157.700 C 40.355 157.865,40.212 158.000,39.983 158.000 C 39.504 158.000,33.200 164.273,33.200 164.750 C 33.200 164.923,32.750 165.306,32.200 165.600 C 31.650 165.894,31.200 166.375,31.200 166.668 C 31.200 166.960,31.023 167.200,30.808 167.200 C 30.295 167.200,20.000 177.495,20.000 178.008 C 20.000 178.223,19.807 178.400,19.571 178.400 C 19.018 178.400,18.000 179.418,18.000 179.971 C 18.000 180.207,17.823 180.400,17.608 180.400 C 17.095 180.400,6.800 190.695,6.800 191.208 C 6.800 191.423,6.607 191.600,6.371 191.600 C 5.818 191.600,4.800 192.618,4.800 193.171 C 4.800 193.407,4.610 193.600,4.377 193.600 C 2.811 193.600,-0.000 197.755,-0.000 200.071 L -0.000 202.417 43.696 246.109 C 67.730 270.139,87.530 289.755,87.696 289.700 C 87.863 289.645,88.000 289.778,88.000 289.995 C 88.000 291.061,89.434 292.000,91.060 292.000 C 94.179 292.000,94.000 293.404,94.000 268.971 L 94.000 247.200 123.400 247.200 L 152.800 247.200 152.800 276.600 L 152.800 306.000 131.356 306.000 L 109.913 306.000 108.963 306.900 C 107.455 308.330,108.176 312.000,109.964 312.000 C 110.204 312.000,110.355 312.137,110.300 312.304 C 110.245 312.470,129.861 332.270,153.891 356.304 L 197.583 400.000 199.987 400.000 L 202.392 400.000 217.596 384.815 C 225.958 376.463,232.800 369.443,232.800 369.215 C 232.800 368.987,232.935 368.845,233.101 368.900 C 233.509 369.036,246.000 356.573,246.000 356.030 C 246.000 355.794,246.139 355.645,246.310 355.700 C 246.480 355.755,256.830 345.593,269.310 333.118 C 291.819 310.617,292.000 310.423,292.000 308.818 C 292.000 307.646,291.834 307.200,291.400 307.200 C 291.070 307.200,290.800 306.930,290.800 306.600 C 290.800 306.074,288.111 306.000,269.000 306.000 L 247.200 306.000 247.200 276.600 L 247.200 247.200 276.600 247.200 L 306.000 247.200 306.000 268.938 C 306.000 299.446,303.034 299.405,333.118 269.310 C 345.593 256.830,355.755 246.480,355.700 246.310 C 355.645 246.139,355.794 246.000,356.030 246.000 C 356.573 246.000,369.036 233.509,368.900 233.101 C 368.845 232.935,368.987 232.800,369.215 232.800 C 369.443 232.800,376.463 225.958,384.815 217.596 L 400.000 202.392 400.000 200.016 C 400.000 197.615,398.919 195.600,397.631 195.600 C 397.368 195.600,397.244 195.452,397.356 195.271 C 397.583 194.904,396.210 193.600,395.595 193.600 C 395.378 193.600,395.200 193.407,395.200 193.171 C 395.200 192.618,394.182 191.600,393.629 191.600 C 393.393 191.600,393.200 191.424,393.200 191.210 C 393.200 190.679,384.909 182.400,384.377 182.400 C 384.144 182.400,384.044 182.252,384.156 182.071 C 384.383 181.704,383.010 180.400,382.395 180.400 C 382.178 180.400,382.000 180.207,382.000 179.971 C 382.000 179.418,380.982 178.400,380.429 178.400 C 380.193 178.400,380.000 178.220,380.000 177.999 C 380.000 177.472,367.732 165.200,367.206 165.200 C 366.983 165.200,366.800 165.016,366.800 164.790 C 366.800 164.256,354.544 152.000,354.010 152.000 C 353.784 152.000,353.600 151.816,353.600 151.590 C 353.600 151.056,341.344 138.800,340.810 138.800 C 340.584 138.800,340.400 138.616,340.400 138.390 C 340.400 137.856,328.144 125.600,327.610 125.600 C 327.384 125.600,327.200 125.416,327.200 125.190 C 327.200 124.656,314.944 112.400,314.410 112.400 C 314.184 112.400,314.000 112.213,314.000 111.985 C 314.000 109.604,308.891 107.341,307.062 108.913 L 306.000 109.825 306.000 131.313 L 306.000 152.800 276.600 152.800 L 247.200 152.800 247.200 123.400 L 247.200 94.000 268.971 94.000 C 293.338 94.000,292.000 94.166,292.000 91.136 C 292.000 89.572,289.208 86.000,287.985 86.000 C 287.773 86.000,287.600 85.816,287.600 85.590 C 287.600 85.365,284.814 82.395,281.410 78.990 C 278.005 75.586,275.035 72.800,274.810 72.800 C 274.584 72.800,274.400 72.616,274.400 72.390 C 274.400 71.856,262.144 59.600,261.610 59.600 C 261.384 59.600,261.200 59.416,261.200 59.190 C 261.200 58.656,248.944 46.400,248.410 46.400 C 248.184 46.400,248.000 46.216,248.000 45.990 C 248.000 45.456,235.744 33.200,235.210 33.200 C 234.984 33.200,234.800 33.017,234.800 32.794 C 234.800 32.268,222.528 20.000,222.001 20.000 C 221.780 20.000,221.600 19.807,221.600 19.571 C 221.600 19.018,220.582 18.000,220.029 18.000 C 219.793 18.000,219.600 17.822,219.600 17.605 C 219.600 16.990,218.296 15.617,217.929 15.844 C 217.748 15.956,217.600 15.856,217.600 15.623 C 217.600 15.091,209.321 6.800,208.790 6.800 C 208.576 6.800,208.400 6.607,208.400 6.371 C 208.400 5.818,207.382 4.800,206.829 4.800 C 206.593 4.800,206.400 4.622,206.400 4.405 C 206.400 3.790,205.096 2.417,204.729 2.644 C 204.548 2.756,204.400 2.632,204.400 2.369 C 204.400 -0.632,198.653 -0.890,195.662 1.977 M241.899 46.899 C 264.615 69.614,283.200 88.424,283.200 88.699 C 283.200 89.093,279.041 89.200,263.662 89.200 C 244.307 89.200,244.117 89.208,243.362 90.042 C 242.166 91.364,242.172 155.443,243.368 156.765 L 244.136 157.614 277.083 157.507 C 305.855 157.414,310.077 157.324,310.409 156.800 C 310.634 156.443,310.790 148.213,310.794 136.500 C 310.799 121.025,310.907 116.800,311.299 116.800 C 311.890 116.800,394.800 199.612,394.800 200.202 C 394.800 200.789,311.883 283.600,311.295 283.600 C 310.908 283.600,310.800 279.312,310.800 263.974 C 310.800 251.210,310.655 244.077,310.386 243.574 C 309.788 242.457,244.074 242.347,243.149 243.461 C 242.363 244.408,242.137 308.076,242.914 309.600 L 243.423 310.600 263.512 310.704 C 279.080 310.784,283.600 310.918,283.600 311.299 C 283.600 311.954,200.750 394.800,200.095 394.800 C 199.363 394.800,116.800 312.144,116.800 311.411 C 116.800 310.871,119.100 310.799,136.500 310.794 C 148.216 310.790,156.443 310.634,156.800 310.408 C 157.664 309.862,157.714 244.501,156.851 243.461 C 156.007 242.445,91.055 242.445,89.931 243.462 C 89.242 244.086,89.200 245.242,89.200 263.662 C 89.200 280.919,89.129 283.200,88.589 283.200 C 87.383 283.200,5.131 200.474,5.563 199.696 C 6.219 198.516,88.177 116.800,88.705 116.800 C 89.092 116.800,89.200 121.083,89.200 136.400 C 89.200 155.467,89.222 156.022,90.000 156.800 C 91.058 157.858,155.189 158.081,156.624 157.032 C 157.842 156.141,157.842 90.659,156.624 89.768 C 155.978 89.296,152.554 89.200,136.324 89.200 C 121.067 89.200,116.800 89.092,116.800 88.705 C 116.800 87.988,199.279 5.600,199.997 5.600 C 200.328 5.600,219.184 24.185,241.899 46.899 "
      class="mathhub-dark-blue" />

      <!-- Arrow-Shape -->
      <path
        d="m 158.097,46.905 c -22.713,22.717 -41.297,41.527 -41.297,41.8 0,0.387 4.267,0.495 19.524,0.495 16.23,0 19.654,0.096 20.3,0.568 1.218,0.891 1.218,66.373 0,67.264 -1.435,1.049 -65.566,0.826 -66.624,-0.232 -0.778,-0.778 -0.8,-1.333 -0.8,-20.4 0,-15.317 -0.108,-19.6 -0.495,-19.6 -0.528,0 -82.486,81.716 -83.142,82.896 -0.432,0.778 81.82,83.504 83.026,83.504 0.54,0 0.611,-2.281 0.611,-19.538 0,-18.42 0.042,-19.576 0.731,-20.2 1.124,-1.017 66.076,-1.017 66.92,-10e-4 0.863,1.04 0.813,66.401 -0.051,66.947 -0.357,0.226 -8.584,0.382 -20.3,0.386 -17.4,0.005 -19.7,0.077 -19.7,0.617 0,0.733 82.563,83.389 83.295,83.389 0.655,0 83.505,-82.846 83.505,-83.501 0,-0.381 -4.52,-0.515 -20.088,-0.595 l -20.089,-0.104 -0.509,-1 c -0.777,-1.524 -0.551,-65.192 0.235,-66.139 0.925,-1.114 66.639,-1.004 67.237,0.113 0.269,0.503 0.414,7.636 0.414,20.4 0,15.338 0.108,19.626 0.495,19.626 0.588,0 83.505,-82.811 83.505,-83.398 0,-0.59 -82.91,-83.402 -83.501,-83.402 -0.392,0 -0.5,4.225 -0.505,19.7 -0.004,11.713 -0.16,19.943 -0.385,20.3 -0.332,0.524 -4.554,0.614 -33.326,0.707 l -32.947,0.107 -0.768,-0.849 c -1.196,-1.322 -1.202,-65.401 -0.006,-66.723 0.755,-0.834 0.945,-0.842 20.3,-0.842 15.379,0 19.538,-0.107 19.538,-0.501 0,-0.72 -82.482,-83.099 -83.203,-83.099 -0.331,0 -19.186,18.587 -41.9,41.305"
        class="mathhub-light-blue" />
    
      <!-- MathHub text -->
      <path
        d="M192.000 148.863 C 185.357 150.215,182.707 151.039,178.510 153.053 C 175.397 154.547,171.770 156.711,170.745 157.685 C 170.445 157.970,169.210 159.012,168.000 160.000 C 165.071 162.392,164.067 163.389,161.968 165.994 C 160.996 167.200,159.840 168.604,159.400 169.114 C 156.837 172.080,152.844 181.114,151.670 186.600 C 150.561 191.788,150.400 193.178,150.400 197.600 C 150.400 202.023,150.562 203.421,151.671 208.600 C 154.239 220.588,163.639 233.853,173.522 239.435 C 174.335 239.894,175.900 240.772,177.000 241.388 C 186.487 246.693,201.210 248.283,211.600 245.124 C 221.110 242.233,227.145 238.630,233.622 231.975 C 237.990 227.488,243.016 220.032,242.721 218.477 C 242.620 217.942,242.006 217.758,239.796 217.600 L 237.000 217.400 236.781 208.400 C 236.660 203.450,236.525 199.355,236.481 199.300 C 236.436 199.245,232.800 199.200,228.400 199.200 L 220.400 199.200 220.394 207.900 C 220.386 218.403,220.744 217.660,215.767 217.515 L 211.800 217.400 211.800 196.600 L 211.800 175.800 216.000 175.800 L 220.200 175.800 220.308 183.908 L 220.417 192.017 228.508 191.908 L 236.600 191.800 236.800 183.800 L 237.000 175.800 239.507 175.600 C 242.368 175.372,242.353 175.395,241.141 172.969 C 237.829 166.335,228.286 157.373,220.193 153.295 C 216.389 151.378,212.424 150.157,205.669 148.821 C 203.131 148.319,194.541 148.345,192.000 148.863 M69.387 176.090 C 69.280 176.370,69.239 185.780,69.296 197.000 L 69.400 217.400 73.200 217.400 L 77.000 217.400 77.105 202.415 C 77.216 186.532,77.402 184.953,78.575 189.900 C 79.335 193.104,80.151 196.367,80.801 198.800 C 81.371 200.931,82.839 206.824,83.194 208.400 C 83.367 209.170,83.813 210.970,84.184 212.400 C 84.555 213.830,84.988 215.540,85.145 216.200 L 85.431 217.400 89.518 217.514 C 93.453 217.624,93.618 217.594,93.961 216.714 C 94.158 216.211,95.822 209.684,97.659 202.209 C 99.497 194.734,101.180 188.659,101.400 188.708 C 101.653 188.766,101.874 194.058,102.000 203.100 L 102.200 217.400 105.889 217.515 C 110.504 217.659,110.046 220.135,109.911 195.800 L 109.800 175.800 103.854 175.689 C 97.211 175.565,97.048 175.619,96.464 178.127 C 96.089 179.739,93.818 188.508,91.731 196.400 C 91.179 198.490,90.586 200.882,90.414 201.716 C 89.992 203.765,89.777 203.873,89.209 202.320 C 88.728 201.006,87.011 194.667,86.413 192.000 C 86.131 190.739,85.321 187.693,83.381 180.600 C 83.019 179.280,82.599 177.660,82.446 177.000 L 82.168 175.800 75.875 175.690 C 71.061 175.605,69.537 175.699,69.387 176.090 M182.709 183.100 C 182.769 187.115,182.959 190.400,183.131 190.400 C 183.304 190.400,184.065 189.932,184.822 189.361 C 189.756 185.638,197.108 185.924,200.514 189.970 C 202.461 192.284,202.600 193.340,202.600 205.800 L 202.600 217.400 198.800 217.400 L 195.000 217.400 194.795 206.800 C 194.545 193.836,194.120 192.800,189.051 192.800 C 184.275 192.800,182.808 196.819,182.803 209.914 L 182.800 217.629 178.900 217.514 L 175.000 217.400 174.896 197.000 C 174.839 185.780,174.881 176.368,174.989 176.085 C 175.135 175.704,176.153 175.600,178.893 175.685 L 182.600 175.800 182.709 183.100 M243.765 176.148 C 243.465 176.930,243.874 177.600,244.651 177.600 C 245.044 177.600,245.211 177.296,245.128 176.731 C 244.973 175.677,244.090 175.299,243.765 176.148 M291.480 175.853 C 291.083 176.250,291.142 216.490,291.540 217.117 C 291.777 217.490,292.812 217.602,295.234 217.517 L 298.600 217.400 298.724 215.900 C 298.875 214.074,299.276 214.033,301.121 215.653 C 307.150 220.946,315.878 218.670,319.546 210.848 C 321.543 206.588,321.274 197.386,319.022 192.944 C 315.768 186.527,305.070 184.655,300.831 189.762 C 299.770 191.041,299.616 190.267,299.509 183.100 L 299.400 175.800 295.580 175.686 C 293.479 175.624,291.634 175.699,291.480 175.853 M164.201 186.281 C 164.381 187.056,164.706 187.176,166.903 187.281 L 169.400 187.400 169.517 190.500 L 169.634 193.600 167.297 193.600 C 164.105 193.600,164.000 193.772,164.000 199.019 C 164.000 210.488,164.700 212.778,167.843 211.584 C 169.302 211.029,170.400 213.192,170.400 216.622 C 170.400 218.359,162.215 218.977,159.304 217.459 C 156.625 216.062,156.278 214.592,156.079 203.800 C 155.890 193.494,155.918 193.617,153.700 193.606 L 152.400 193.600 152.400 190.608 C 152.400 187.374,152.294 187.516,155.000 187.111 C 155.690 187.008,155.831 186.594,156.025 184.104 C 156.149 182.516,156.329 181.144,156.425 181.056 C 156.895 180.623,162.246 177.483,162.971 177.214 C 163.773 176.917,163.803 177.043,163.899 181.153 C 163.953 183.489,164.089 185.796,164.201 186.281 M245.757 185.800 C 245.197 187.056,245.300 209.060,245.868 209.628 C 246.226 209.986,246.400 209.636,246.604 208.148 C 246.750 207.077,247.034 205.570,247.233 204.800 C 247.740 202.843,247.691 192.501,247.162 189.931 C 246.119 184.857,246.144 184.930,245.757 185.800 M128.200 187.964 C 125.483 189.241,123.926 190.720,123.021 192.887 C 122.084 195.131,122.206 195.535,123.900 195.787 C 124.725 195.909,126.110 196.172,126.978 196.370 C 128.485 196.714,128.620 196.661,129.978 195.187 C 133.471 191.396,140.000 192.334,140.000 196.627 C 140.000 198.122,139.443 198.420,134.800 199.410 C 133.150 199.762,131.247 200.219,130.572 200.425 C 129.896 200.631,129.104 200.800,128.811 200.800 C 125.966 200.800,121.839 204.732,121.365 207.894 C 120.027 216.814,130.837 221.928,138.720 216.104 C 140.216 214.999,141.077 215.124,141.269 216.476 C 141.394 217.360,141.569 217.405,145.300 217.514 C 149.697 217.644,149.705 217.636,148.612 214.600 C 148.177 213.395,148.031 210.810,148.018 204.131 C 147.996 193.208,147.717 191.723,145.288 189.585 C 141.798 186.513,133.054 185.684,128.200 187.964 M256.700 187.624 C 255.724 188.204,255.660 207.107,256.620 211.181 C 258.395 218.712,267.189 220.990,273.929 215.665 C 275.788 214.196,276.262 214.296,276.469 216.200 L 276.600 217.400 280.200 217.400 L 283.800 217.400 283.905 202.717 C 284.027 185.661,284.453 187.089,279.295 187.283 L 276.200 187.400 275.949 196.600 C 275.604 209.288,274.831 211.451,270.376 212.204 C 264.996 213.113,264.305 211.547,264.017 197.800 L 263.800 187.400 260.600 187.304 C 258.840 187.251,257.085 187.395,256.700 187.624 M309.429 194.076 C 315.579 198.290,313.177 212.000,306.290 212.000 C 301.925 212.000,299.600 208.631,299.600 202.309 C 299.600 194.589,304.360 190.603,309.429 194.076 M140.000 205.816 C 140.000 211.791,133.652 215.230,130.199 211.126 C 127.865 208.352,129.589 205.834,134.634 204.649 C 136.375 204.241,137.980 203.851,138.200 203.785 C 139.762 203.310,140.000 203.579,140.000 205.816 "
        class="mathhub-white" />


      
</svg>